<svg height="512pt" viewBox="0 0 512 512" width="512pt" xmlns="http://www.w3.org/2000/svg"><path d="m76 361.300781c13.800781-13.5 30.601562-24 48.898438-30.902343 99.300781-37.199219 199.203124-117.296876 260.703124-203.398438l20.097657-28.199219-41.699219 31.199219c-30.898438 23.101562-69.300781 36-108 36-99.300781 0-180 80.699219-180 180zm0 0"/><path d="m436 136v-28.199219l-26.101562 36.601563c-65.097657 90.898437-169.800782 174.898437-274.5 214.195312-11.097657 4.203125-21.597657 10.203125-30.597657 17.402344h91.199219c132.300781 0 240-107.699219 240-240zm0 0"/><path d="m61 466c0-35.699219 16.800781-68.699219 43.800781-90h-28.800781v-14.699219c-27.898438 26.699219-45 64.5-45 104.699219zm0 0"/><path d="m316 122.921875v-122.921875h-120v144.84375c19.03125-5.6875 39.144531-8.84375 60-8.84375 20.703125 0 41.097656-4.820312 60-13.078125zm0 0"/><path d="m109.3125 196h-109.3125v120h48.394531c6.726563-46.695312 28.695313-88.480469 60.917969-120zm0 0"/><path d="m396.667969 316h115.332031v-120h-52.953125c-10.367187 45.445312-32.246094 86.445312-62.378906 120zm0 0"/><path d="m316 377.507812c-36.203125 18.066407-76.863281 28.492188-120 28.492188v106h120zm0 0"/></svg>